<?xml version="1.0" standalone="no"?>
<!DOCTYPE svg PUBLIC "-//W3C//DTD SVG 20010904//EN"
 "http://www.w3.org/TR/2001/REC-SVG-20010904/DTD/svg10.dtd">
<svg version="1.0" xmlns="http://www.w3.org/2000/svg"
 width="512.000000pt" height="512.000000pt" viewBox="0 0 512.000000 512.000000"
 preserveAspectRatio="xMidYMid meet">

<g transform="translate(0.000000,512.000000) scale(0.100000,-0.100000)"
fill="#fff" stroke="none">
<path d="M1475 4861 c-52 -15 -473 -236 -499 -262 -6 -5 -190 -9 -438 -9 -474
0 -480 -1 -518 -62 -20 -33 -20 -44 -20 -2111 0 -2283 -4 -2122 59 -2160 26
-15 66 -17 368 -17 383 0 383 0 383 69 0 26 -7 44 -21 57 -20 18 -43 19 -330
22 l-309 3 0 2024 0 2025 402 0 c331 0 404 -2 417 -14 40 -35 463 -257 518
-271 52 -13 218 -15 1330 -13 1267 3 1272 3 1299 24 59 43 69 68 72 175 l4 99
104 0 c91 0 107 3 124 20 30 30 27 83 -6 109 -23 18 -41 21 -124 21 l-98 0 -4
94 c-3 102 -14 127 -72 170 -27 21 -32 21 -1304 23 -1195 2 -1281 1 -1337 -16z
m2073 -203 l-3 -73 -922 -3 -923 -2 0 75 0 75 925 0 926 0 -3 -72z m492 -148
l0 -220 -170 0 -170 0 0 220 0 220 170 0 170 0 0 -220z m-2490 0 c0 -244 6
-233 -105 -178 l-66 33 3 145 3 145 64 33 c107 54 101 65 101 -178z m-330 0
c0 -27 -2 -50 -5 -50 -13 0 -85 41 -85 48 0 8 69 51 83 52 4 0 7 -22 7 -50z
m2330 -150 l0 -70 -925 0 -925 0 0 70 0 70 925 0 925 0 0 -70z"/>
<path d="M4676 4569 c-33 -26 -36 -79 -6 -109 18 -18 33 -20 160 -20 l140 0 0
-2025 0 -2025 -1949 -2 c-1901 -3 -1949 -3 -1970 -22 -14 -13 -21 -31 -21 -57
0 -75 -184 -69 2023 -69 1847 0 1981 1 2008 17 63 38 59 -123 59 2160 0 2067
0 2078 -20 2111 -32 53 -68 62 -243 62 -141 0 -157 -2 -181 -21z"/>
<path d="M528 3851 l-33 -29 -3 -294 c-2 -279 -1 -295 18 -326 11 -18 32 -37
46 -42 14 -6 149 -10 311 -10 l285 0 34 34 34 34 0 232 0 232 25 30 c29 34 33
89 10 108 -9 7 -39 24 -66 37 -50 22 -58 23 -340 23 l-289 0 -32 -29z m435
-213 l-92 -92 -45 42 c-53 49 -85 53 -123 16 -39 -40 -27 -75 56 -156 63 -62
72 -68 111 -68 39 0 48 6 121 77 l79 76 0 -116 0 -117 -215 0 -215 0 0 215 0
215 207 0 208 0 -92 -92z"/>
<path d="M2741 3864 c-46 -33 -51 -64 -51 -349 0 -294 5 -321 59 -349 43 -22
577 -24 620 -2 48 25 51 44 51 362 l0 296 -29 29 -29 29 -299 0 c-260 0 -302
-2 -322 -16z m529 -349 l0 -215 -215 0 -215 0 0 215 0 215 215 0 215 0 0 -215z"/>
<path d="M1401 3684 c-27 -35 -26 -57 3 -91 l24 -28 476 0 475 0 22 22 c27 27
29 75 4 103 -18 20 -30 20 -501 20 l-483 0 -20 -26z"/>
<path d="M3605 3690 c-25 -28 -23 -76 4 -103 l22 -22 475 0 476 0 24 28 c29
34 30 56 3 91 l-20 26 -483 0 c-471 0 -483 0 -501 -20z"/>
<path d="M1423 3458 c-48 -23 -51 -103 -4 -127 12 -7 121 -11 299 -11 278 0
279 0 300 23 29 31 28 72 -3 102 l-24 25 -273 -1 c-169 0 -281 -4 -295 -11z"/>
<path d="M3623 3458 c-32 -16 -46 -63 -28 -98 8 -15 22 -30 30 -34 9 -3 141
-6 294 -6 277 0 278 0 299 23 31 33 29 80 -4 106 -26 20 -38 21 -298 20 -169
0 -279 -4 -293 -11z"/>
<path d="M553 2920 c-13 -5 -32 -24 -43 -42 -19 -31 -20 -47 -18 -326 l3 -294
33 -29 32 -29 291 0 c315 0 333 3 357 55 8 18 12 113 12 316 l0 291 -34 34
-34 34 -288 -1 c-159 0 -299 -4 -311 -9z m517 -355 l0 -215 -215 0 -215 0 0
215 0 215 215 0 215 0 0 -215z"/>
<path d="M2744 2911 c-17 -11 -36 -34 -43 -52 -17 -50 -15 -550 3 -593 27 -66
28 -66 359 -66 l299 0 29 29 29 29 0 304 c0 272 -2 305 -18 324 -33 42 -50 44
-344 44 -261 0 -285 -2 -314 -19z m526 -346 l0 -215 -215 0 -215 0 0 215 0
215 215 0 215 0 0 -215z"/>
<path d="M1417 2749 c-46 -27 -41 -105 9 -128 17 -8 163 -11 479 -11 316 0
462 3 479 11 51 23 55 103 7 128 -27 15 -949 14 -974 0z"/>
<path d="M3609 2742 c-33 -27 -30 -78 5 -109 l27 -23 459 0 c315 0 467 3 483
11 25 11 47 47 47 75 0 8 -11 26 -25 39 l-24 25 -474 0 c-447 0 -476 -1 -498
-18z"/>
<path d="M1434 2510 c-26 -10 -54 -48 -54 -71 0 -9 9 -28 21 -43 l20 -26 290
0 c276 0 290 1 309 20 25 25 26 71 1 101 l-19 24 -274 2 c-150 1 -283 -2 -294
-7z"/>
<path d="M3635 2511 c-49 -21 -64 -83 -30 -121 17 -19 30 -20 307 -20 275 0
289 1 308 20 25 25 26 71 1 101 l-19 24 -274 2 c-150 1 -282 -2 -293 -6z"/>
<path d="M1045 1919 c-238 -34 -440 -205 -520 -440 -23 -70 -28 -102 -29 -189
-1 -125 13 -187 65 -298 72 -150 207 -270 367 -325 165 -57 327 -46 492 34
158 76 291 241 337 419 22 86 21 235 -1 320 -68 255 -280 443 -540 479 -86 12
-86 12 -171 0z m244 -171 c221 -71 364 -304 331 -540 -29 -204 -188 -375 -388
-417 -327 -68 -631 221 -584 554 44 309 344 497 641 403z"/>
<path d="M863 1490 c-31 -13 -43 -41 -43 -103 0 -43 5 -58 23 -75 53 -50 127
-8 127 72 0 56 -15 91 -47 105 -28 13 -30 13 -60 1z"/>
<path d="M1345 1489 c-35 -20 -45 -41 -45 -95 0 -66 27 -104 74 -104 51 0 76
34 76 102 0 39 -5 62 -17 76 -22 26 -62 35 -88 21z"/>
<path d="M922 1204 c-78 -32 -38 -189 65 -254 93 -59 203 -59 296 0 103 65
143 222 65 254 -54 23 -108 -8 -108 -63 0 -11 -11 -33 -25 -49 -41 -49 -113
-51 -160 -4 -14 13 -25 33 -25 43 0 61 -53 97 -108 73z"/>
<path d="M2475 1920 c-143 -19 -252 -76 -365 -190 -141 -140 -197 -287 -187
-482 8 -176 66 -307 187 -428 254 -252 649 -253 900 -1 86 87 164 223 164 288
0 55 -53 88 -109 67 -9 -4 -36 -49 -60 -101 -70 -150 -174 -237 -331 -278
-206 -53 -440 51 -541 241 -180 338 51 736 427 736 195 0 363 -109 447 -290
40 -86 67 -103 120 -78 44 21 51 54 24 122 -99 259 -395 431 -676 394z"/>
<path d="M3892 1919 c-198 -30 -378 -159 -471 -338 -53 -103 -74 -186 -74
-301 -1 -183 58 -325 187 -456 64 -64 99 -90 166 -123 163 -80 326 -91 492
-34 107 37 181 86 264 176 131 142 194 341 165 526 -55 354 -383 602 -729 550z
m218 -160 c124 -28 254 -137 314 -262 72 -149 70 -296 -5 -445 -150 -299 -540
-363 -777 -126 -215 215 -190 572 53 751 120 89 260 117 415 82z"/>
<path d="M3713 1490 c-31 -13 -43 -41 -43 -103 0 -64 27 -97 77 -97 45 0 73
39 73 101 0 62 -6 77 -41 94 -32 17 -35 17 -66 5z"/>
<path d="M4194 1489 c-29 -15 -44 -51 -44 -105 0 -81 78 -124 128 -71 29 30
31 124 5 155 -22 26 -61 35 -89 21z"/>
<path d="M3929 1243 c-15 -2 -51 -18 -80 -36 -132 -79 -163 -267 -44 -267 40
0 75 31 75 67 0 36 28 71 67 84 66 22 143 -20 143 -77 0 -37 37 -74 76 -74 46
0 74 29 74 78 0 43 -31 116 -63 150 -50 54 -167 90 -248 75z"/>
<path d="M2269 1471 c-29 -30 -31 -36 -27 -88 6 -64 30 -93 79 -93 49 0 69 30
69 103 0 70 -12 90 -62 102 -22 6 -33 1 -59 -24z"/>
<path d="M2780 1493 c-40 -15 -50 -35 -50 -100 0 -50 4 -67 20 -83 25 -25 71
-26 101 -1 21 16 24 28 24 81 0 55 -3 64 -28 86 -28 24 -39 27 -67 17z"/>
<path d="M2363 1160 c-46 -19 -57 -83 -20 -118 22 -21 32 -22 218 -22 191 0
196 0 217 23 27 29 28 67 3 98 -19 24 -23 24 -208 26 -103 1 -198 -2 -210 -7z"/>
</g>
</svg>
