<?xml version="1.0" standalone="no"?>
<!DOCTYPE svg PUBLIC "-//W3C//DTD SVG 20010904//EN"
 "http://www.w3.org/TR/2001/REC-SVG-20010904/DTD/svg10.dtd">
<svg version="1.0" xmlns="http://www.w3.org/2000/svg"
 width="512.000000pt" height="512.000000pt" viewBox="0 0 512.000000 512.000000"
 preserveAspectRatio="xMidYMid meet">

<g transform="translate(0.000000,512.000000) scale(0.100000,-0.100000)"
fill="#fff" stroke="none">
<path d="M2582 5100 c-30 -28 -30 -82 0 -110 19 -18 35 -20 130 -20 59 0 108
-2 108 -5 0 -3 -54 -91 -120 -197 -123 -197 -136 -230 -110 -279 22 -41 60
-49 224 -49 85 0 166 4 179 9 51 20 56 105 8 130 -11 6 -67 11 -125 11 -58 0
-106 2 -106 4 0 3 53 89 119 193 65 103 121 198 125 210 9 28 -15 86 -45 107
-19 13 -53 16 -194 16 -158 0 -173 -2 -193 -20z"/>
<path d="M1578 4901 c-39 -13 -189 -113 -289 -192 -111 -88 -297 -282 -373
-389 -230 -320 -356 -655 -396 -1044 -13 -125 -5 -157 39 -176 32 -13 75 0 89
27 5 10 15 70 21 133 41 397 182 743 427 1047 126 155 319 325 478 421 99 61
127 22 77 -107 -82 -212 -115 -421 -108 -676 7 -276 56 -481 172 -720 107
-222 244 -399 452 -585 99 -89 124 -117 153 -174 l35 -69 3 -618 c2 -399 -1
-619 -7 -619 -39 0 -247 48 -346 80 -582 189 -1051 655 -1244 1235 -37 111
-81 297 -81 343 0 10 -9 31 -21 46 -26 33 -79 36 -110 5 -19 -19 -21 -29 -15
-88 4 -36 21 -122 37 -191 198 -811 885 -1442 1711 -1571 l77 -12 3 -426 c3
-470 1 -452 69 -519 61 -60 88 -64 370 -60 236 4 259 6 319 27 121 45 209 108
284 204 75 97 125 242 126 363 l0 51 93 6 c52 3 117 14 149 26 131 45 258 166
258 244 0 31 -39 67 -74 67 -27 0 -33 -5 -110 -90 -54 -60 -128 -91 -232 -98
l-84 -5 0 321 c0 217 -4 329 -11 346 -23 51 -103 55 -128 7 -7 -13 -11 -171
-11 -468 0 -493 -4 -530 -60 -628 -35 -61 -120 -144 -178 -174 -84 -43 -144
-51 -373 -51 l-218 0 -20 26 c-21 27 -21 29 -21 1105 0 764 -3 1093 -11 1131
-25 117 -97 229 -201 314 -32 25 -58 50 -58 54 0 11 325 131 370 137 52 7 138
-20 184 -58 21 -18 49 -55 62 -83 24 -51 24 -53 24 -423 0 -251 4 -380 11
-396 11 -24 47 -47 73 -47 7 0 25 9 40 21 l26 20 0 311 0 310 178 -5 c190 -5
239 -15 345 -65 139 -65 245 -170 312 -307 67 -135 68 -148 73 -582 l3 -393
26 -20 c42 -33 85 -25 108 21 12 22 15 71 15 217 l0 188 36 35 c147 141 331
433 422 672 72 188 75 242 20 317 -40 56 -103 84 -174 78 -45 -4 -69 -15 -161
-76 -109 -72 -225 -134 -319 -171 l-51 -20 -29 30 c-41 43 -165 126 -231 155
-114 51 -195 66 -390 71 l-182 6 -7 31 c-24 115 -115 224 -232 279 -60 28 -77
31 -157 31 -88 0 -94 -2 -305 -82 l-215 -82 -43 47 c-154 172 -298 465 -353
721 -26 123 -37 398 -20 527 15 119 55 277 97 387 40 107 43 158 11 219 -43
81 -147 126 -229 100z m2866 -2337 c21 -20 21 -18 -15 -121 -63 -180 -205
-438 -312 -566 l-24 -29 -8 93 c-9 122 -35 219 -83 315 l-39 78 126 62 c69 34
167 90 216 123 95 64 114 71 139 45z"/>
<path d="M3890 4590 c-22 -22 -26 -60 -10 -90 15 -28 64 -40 163 -40 67 0 88
-3 84 -12 -2 -7 -57 -96 -122 -198 -109 -173 -116 -188 -111 -225 3 -26 14
-48 31 -62 25 -22 34 -23 205 -23 171 0 180 1 200 22 11 12 20 32 20 44 0 65
-37 84 -165 84 -52 0 -95 3 -95 6 0 3 55 93 121 200 113 180 121 197 116 232
-4 22 -17 46 -32 60 -25 21 -34 22 -206 22 -166 0 -180 -1 -199 -20z"/>
<path d="M3018 3965 c-37 -21 -46 -69 -21 -104 19 -25 25 -26 137 -31 l117 -5
-123 -195 c-140 -224 -148 -249 -90 -301 l32 -29 173 0 c161 0 175 1 195 20
32 30 30 82 -4 109 -23 18 -41 21 -131 21 -80 0 -104 3 -100 13 3 6 57 95 121
196 130 207 137 228 87 283 l-29 33 -169 2 c-133 2 -173 0 -195 -12z"/>
</g>
</svg>
